<?xml version="1.0" encoding="UTF-8" standalone="no"?>
<!-- Generator: Adobe Illustrator 16.0.4, SVG Export Plug-In . SVG Version: 6.00 Build 0)  -->

<svg
   xmlns:dc="http://purl.org/dc/elements/1.1/"
   xmlns:cc="http://creativecommons.org/ns#"
   xmlns:rdf="http://www.w3.org/1999/02/22-rdf-syntax-ns#"
   xmlns:svg="http://www.w3.org/2000/svg"
   xmlns="http://www.w3.org/2000/svg"
   xmlns:sodipodi="http://sodipodi.sourceforge.net/DTD/sodipodi-0.dtd"
   xmlns:inkscape="http://www.inkscape.org/namespaces/inkscape"
   version="1.1"
   id="Capa_1"
   x="0px"
   y="0px"
   width="16px"
   height="16px"
   viewBox="0 0 16 16"
   enable-background="new 0 0 16 16"
   xml:space="preserve"
   inkscape:version="0.48.4 r9939"
   sodipodi:docname="document9.svg"><metadata
     id="metadata19"><rdf:RDF><cc:Work
         rdf:about=""><dc:format>image/svg+xml</dc:format><dc:type
           rdf:resource="http://purl.org/dc/dcmitype/StillImage" /></cc:Work></rdf:RDF></metadata><defs
     id="defs17" /><sodipodi:namedview
     pagecolor="#ffffff"
     bordercolor="#666666"
     borderopacity="1"
     objecttolerance="10"
     gridtolerance="10"
     guidetolerance="10"
     inkscape:pageopacity="0"
     inkscape:pageshadow="2"
     inkscape:window-width="640"
     inkscape:window-height="480"
     id="namedview15"
     showgrid="false"
     inkscape:zoom="14.75"
     inkscape:cx="8"
     inkscape:cy="8"
     inkscape:window-x="2230"
     inkscape:window-y="194"
     inkscape:window-maximized="0"
     inkscape:current-layer="Capa_1" /><g
     id="g3"
     style="fill:#b3b3b3"><path
       d="M14,0H2C1.448,0,1,0.448,1,1v14c0,0.552,0.448,1,1,1h12c0.552,0,1-0.448,1-1V1C15,0.448,14.552,0,14,0z M14,15H2V1h12V15z"
       id="path5"
       style="fill:#b3b3b3" /><path
       d="M7.5,4h4C11.775,4,12,3.776,12,3.5S11.775,3,11.5,3h-4C7.224,3,7,3.224,7,3.5S7.224,4,7.5,4z"
       id="path7"
       style="fill:#b3b3b3" /><path
       d="M4.5,7h7C11.775,7,12,6.776,12,6.5S11.775,6,11.5,6h-7C4.224,6,4,6.224,4,6.5S4.224,7,4.5,7z"
       id="path9"
       style="fill:#b3b3b3" /><path
       d="M4.5,10h7c0.275,0,0.5-0.225,0.5-0.5S11.775,9,11.5,9h-7C4.224,9,4,9.225,4,9.5S4.224,10,4.5,10z"
       id="path11"
       style="fill:#b3b3b3" /><path
       d="M4.5,13h7c0.275,0,0.5-0.225,0.5-0.5S11.775,12,11.5,12h-7C4.224,12,4,12.225,4,12.5S4.224,13,4.5,13z"
       id="path13"
       style="fill:#b3b3b3" /></g></svg>