<?xml version="1.0" encoding="UTF-8" standalone="no"?>
<!-- Generator: Adobe Illustrator 16.0.0, SVG Export Plug-In . SVG Version: 6.00 Build 0)  -->

<svg
   xmlns:dc="http://purl.org/dc/elements/1.1/"
   xmlns:cc="http://creativecommons.org/ns#"
   xmlns:rdf="http://www.w3.org/1999/02/22-rdf-syntax-ns#"
   xmlns:svg="http://www.w3.org/2000/svg"
   xmlns="http://www.w3.org/2000/svg"
   xmlns:sodipodi="http://sodipodi.sourceforge.net/DTD/sodipodi-0.dtd"
   xmlns:inkscape="http://www.inkscape.org/namespaces/inkscape"
   version="1.1"
   id="Layer_2"
   x="0px"
   y="0px"
   width="100px"
   height="100px"
   viewBox="0 0 100 100"
   enable-background="new 0 0 100 100"
   xml:space="preserve"
   inkscape:version="0.48.4 r9939"
   sodipodi:docname="star83.svg"><metadata
     id="metadata9"><rdf:RDF><cc:Work
         rdf:about=""><dc:format>image/svg+xml</dc:format><dc:type
           rdf:resource="http://purl.org/dc/dcmitype/StillImage" /></cc:Work></rdf:RDF></metadata><defs
     id="defs7" /><sodipodi:namedview
     pagecolor="#ffffff"
     bordercolor="#666666"
     borderopacity="1"
     objecttolerance="10"
     gridtolerance="10"
     guidetolerance="10"
     inkscape:pageopacity="0"
     inkscape:pageshadow="2"
     inkscape:window-width="640"
     inkscape:window-height="480"
     id="namedview5"
     showgrid="false"
     inkscape:zoom="2.36"
     inkscape:cx="50"
     inkscape:cy="50"
     inkscape:window-x="0"
     inkscape:window-y="24"
     inkscape:window-maximized="0"
     inkscape:current-layer="Layer_2" /><path
     d="M86.809,44.821L67.723,58.687l7.291,22.437c0.395,1.215-0.039,2.545-1.07,3.296c-0.518,0.375-1.125,0.563-1.734,0.563  s-1.217-0.188-1.732-0.563L51.393,70.553L32.309,84.419c-1.035,0.751-2.434,0.751-3.467,0c-1.031-0.751-1.465-2.081-1.07-3.296  l7.289-22.437L15.977,44.821c-1.033-0.751-1.467-2.081-1.072-3.296c0.396-1.215,1.529-2.037,2.805-2.037h23.59l7.289-22.435  c0.395-1.215,1.527-2.037,2.805-2.037s2.408,0.822,2.803,2.037l7.289,22.435h23.592c1.275,0,2.408,0.822,2.805,2.037  C88.274,42.74,87.84,44.07,86.809,44.821z"
     id="path3"
     style="fill:#b3b3b3" /></svg>