<?xml version="1.0" encoding="UTF-8" standalone="no"?>
<!-- Generator: Adobe Illustrator 16.0.0, SVG Export Plug-In . SVG Version: 6.00 Build 0)  -->

<svg
   xmlns:dc="http://purl.org/dc/elements/1.1/"
   xmlns:cc="http://creativecommons.org/ns#"
   xmlns:rdf="http://www.w3.org/1999/02/22-rdf-syntax-ns#"
   xmlns:svg="http://www.w3.org/2000/svg"
   xmlns="http://www.w3.org/2000/svg"
   xmlns:sodipodi="http://sodipodi.sourceforge.net/DTD/sodipodi-0.dtd"
   xmlns:inkscape="http://www.inkscape.org/namespaces/inkscape"
   version="1.1"
   id="Capa_1"
   x="0px"
   y="0px"
   width="26.676px"
   height="17.105px"
   viewBox="0 0 26.676 17.105"
   style="enable-background:new 0 0 26.676 17.105;"
   xml:space="preserve"
   inkscape:version="0.48.4 r9939"
   sodipodi:docname="back1.svg"><metadata
     id="metadata39"><rdf:RDF><cc:Work
         rdf:about=""><dc:format>image/svg+xml</dc:format><dc:type
           rdf:resource="http://purl.org/dc/dcmitype/StillImage" /></cc:Work></rdf:RDF></metadata><defs
     id="defs37" /><sodipodi:namedview
     pagecolor="#ffffff"
     bordercolor="#666666"
     borderopacity="1"
     objecttolerance="10"
     gridtolerance="10"
     guidetolerance="10"
     inkscape:pageopacity="0"
     inkscape:pageshadow="2"
     inkscape:window-width="640"
     inkscape:window-height="480"
     id="namedview35"
     showgrid="false"
     inkscape:zoom="10.5713"
     inkscape:cx="13.338"
     inkscape:cy="8.5524998"
     inkscape:window-x="0"
     inkscape:window-y="24"
     inkscape:window-maximized="0"
     inkscape:current-layer="Capa_1" /><path
     d="M26.105,17.105c-0.229,0-0.439-0.131-0.529-0.346l0,0c-0.066-0.156-1.716-3.857-7.885-4.59  c-1.285-0.156-2.824-0.236-4.693-0.25v4.613c0,0.213-0.115,0.406-0.304,0.508c-0.188,0.098-0.413,0.084-0.588-0.033L0.254,9.029  C0.094,8.922,0,8.742,0,8.553c0-0.191,0.094-0.365,0.254-0.477l11.857-7.979c0.175-0.121,0.398-0.129,0.588-0.029  c0.19,0.102,0.303,0.295,0.303,0.502v4.293c2.578,0.336,13.674,2.33,13.674,11.674c0,0.271-0.191,0.508-0.459,0.562  C26.18,17.105,26.141,17.105,26.105,17.105z"
     id="path3"
     style="fill:#b3b3b3" /><g
     id="g5" /><g
     id="g7" /><g
     id="g9" /><g
     id="g11" /><g
     id="g13" /><g
     id="g15" /><g
     id="g17" /><g
     id="g19" /><g
     id="g21" /><g
     id="g23" /><g
     id="g25" /><g
     id="g27" /><g
     id="g29" /><g
     id="g31" /><g
     id="g33" /></svg>