<?xml version="1.0" encoding="iso-8859-1"?>
<!-- Generator: Adobe Illustrator 17.1.0, SVG Export Plug-In . SVG Version: 6.00 Build 0)  -->
<!DOCTYPE svg PUBLIC "-//W3C//DTD SVG 1.1//EN" "http://www.w3.org/Graphics/SVG/1.1/DTD/svg11.dtd">
<svg version="1.1" id="Capa_1" xmlns="http://www.w3.org/2000/svg" xmlns:xlink="http://www.w3.org/1999/xlink" x="0px" y="0px"
	 viewBox="0 0 200 200" style="enable-background:new 0 0 200 200;" xml:space="preserve">
<g>
	<path style="fill:#010101;" d="M186.314,33.364c0-1.475-1.195-2.67-2.67-2.67H93.77c-1.475,0-3.543-0.816-4.621-1.823l-9.667-9.032
		c-1.077-1.007-3.146-1.823-4.621-1.823H16.356c-1.475,0-2.67,1.195-2.67,2.67v37.988c0.927-0.377,1.939-0.589,3-0.589h166.629
		c1.061,0,2.073,0.212,3,0.589V33.364z"/>
	<path style="fill:#010101;" d="M16.686,167.084h166.629c1.657,0,3-1.343,3-3v-28.168V66.084c0-1.657-1.343-3-3-3H16.686
		c-1.657,0-3,1.343-3,3v69.832v28.168C13.686,165.741,15.029,167.084,16.686,167.084z"/>
</g>
</svg>
